{
  "accessors": [
    {
      "bufferView": 2,
      "componentType": 5126,
      "count": 16,
      "max": [
        0.069499999284744263,
        -0.095100000500679016,
        2.1551001071929932
      ],
      "min": [
        -0.071599997580051422,
        -0.1080000028014183,
        2.1354999542236328
      ],
      "type": "VEC3"
    },
    {
      "bufferView": 2,
      "byteOffset": 192,
      "componentType": 5126,
      "count": 16,
      "max": [
        0.43890607357025146,
        -0.11050152778625488,
        0.91975307464599609
      ],
      "min": [
        -0.43890607357025146,
        -0.20821200311183929,
        0.89171236753463745
      ],
      "type": "VEC3"
    },
    {
      "bufferView": 0,
      "componentType": 5125,
      "count": 36,
      "max": [
        15
      ],
      "min": [
        0
      ],
      "type": "SCALAR"
    },
    {
      "bufferView": 2,
      "byteOffset": 384,
      "componentType": 5126,
      "count": 1850,
      "max": [
        0.52569997310638428,
        0.66939997673034668,
        2.3605000972747803
      ],
      "min": [
        -0.52770000696182251,
        -0.21050000190734863,
        1.2015999555587769
      ],
      "type": "VEC3"
    },
    {
      "bufferView": 2,
      "byteOffset": 22584,
      "componentType": 5126,
      "count": 1850,
      "max": [
        0.99917840957641602,
        0.99899619817733765,
        0.99996304512023926
      ],
      "min": [
        -0.99917840957641602,
        -0.94385433197021484,
        -0.99953609704971313
      ],
      "type": "VEC3"
    },
    {
      "bufferView": 3,
      "componentType": 5126,
      "count": 1850,
      "max": [
        0.99999946355819702,
        0.99952542781829834,
        0.99595272541046143,
        1
      ],
      "min": [
        -0.9999995231628418,
        -0.99993699789047241,
        -0.95343112945556641,
        -1
      ],
      "type": "VEC4"
    },
    {
      "bufferView": 1,
      "componentType": 5126,
      "count": 1850,
      "max": [
        1.627500057220459,
        1.8693000078201294
      ],
      "min": [
        -0.99239999055862427,
        -0.92470002174377441
      ],
      "type": "VEC2"
    },
    {
      "bufferView": 0,
      "byteOffset": 144,
      "componentType": 5125,
      "count": 5082,
      "max": [
        1849
      ],
      "min": [
        0
      ],
      "type": "SCALAR"
    },
    {
      "bufferView": 2,
      "byteOffset": 44784,
      "componentType": 5126,
      "count": 1087,
      "max": [
        0.2370000034570694,
        0.20319999754428864,
        2.1166999340057373
      ],
      "min": [
        -0.23899999260902405,
        -0.25979998707771301,
        0.032000001519918442
      ],
      "type": "VEC3"
    },
    {
      "bufferView": 2,
      "byteOffset": 57828,
      "componentType": 5126,
      "count": 1087,
      "max": [
        0.99854928255081177,
        0.99181419610977173,
        0.99999964237213135
      ],
      "min": [
        -0.99854928255081177,
        -0.99997115135192871,
        -0.99999821186065674
      ],
      "type": "VEC3"
    },
    {
      "bufferView": 3,
      "byteOffset": 29600,
      "componentType": 5126,
      "count": 1087,
      "max": [
        0.99999892711639404,
        0.99999821186065674,
        0.99879413843154907,
        1
      ],
      "min": [
        -0.99999898672103882,
        -0.99952572584152222,
        -0.99927061796188354,
        -1
      ],
      "type": "VEC4"
    },
    {
      "bufferView": 1,
      "byteOffset": 14800,
      "componentType": 5126,
      "count": 1087,
      "max": [
        0.99739998579025269,
        0.99650001525878906
      ],
      "min": [
        0.020300000905990601,
        0.01080000028014183
      ],
      "type": "VEC2"
    },
    {
      "bufferView": 0,
      "byteOffset": 20472,
      "componentType": 5125,
      "count": 6084,
      "max": [
        1086
      ],
      "min": [
        0
      ],
      "type": "SCALAR"
    },
    {
      "bufferView": 2,
      "byteOffset": 70872,
      "componentType": 5126,
      "count": 882,
      "max": [
        1.1016999483108521,
        0.14180000126361847,
        1.9189000129699707
      ],
      "min": [
        -1.1038000583648682,
        -0.0093999998643994331,
        1.7924000024795532
      ],
      "type": "VEC3"
    },
    {
      "bufferView": 2,
      "byteOffset": 81456,
      "componentType": 5126,
      "count": 882,
      "max": [
        0.98498308658599854,
        0.99647378921508789,
        0.99986255168914795
      ],
      "min": [
        -0.98498308658599854,
        -0.99335759878158569,
        -0.99998211860656738
      ],
      "type": "VEC3"
    },
    {
      "bufferView": 3,
      "byteOffset": 46992,
      "componentType": 5126,
      "count": 882,
      "max": [
        0.99999827146530151,
        0.98235172033309937,
        0.98482662439346313,
        1
      ],
      "min": [
        -0.99999821186065674,
        -0.98856174945831299,
        -0.99907290935516357,
        -1
      ],
      "type": "VEC4"
    },
    {
      "bufferView": 1,
      "byteOffset": 23496,
      "componentType": 5126,
      "count": 882,
      "max": [
        0.73470002412796021,
        0.97839999198913574
      ],
      "min": [
        0.41999998688697815,
        0.45199999213218689
      ],
      "type": "VEC2"
    },
    {
      "bufferView": 0,
      "byteOffset": 44808,
      "componentType": 5125,
      "count": 4356,
      "max": [
        881
      ],
      "min": [
        0
      ],
      "type": "SCALAR"
    },
    {
      "bufferView": 2,
      "byteOffset": 92040,
      "componentType": 5126,
      "count": 2651,
      "max": [
        1.1016999483108521,
        0.25130000710487366,
        1.9888999462127686
      ],
      "min": [
        -1.1038000583648682,
        -0.28940001130104065,
        1.2329000234603882
      ],
      "type": "VEC3"
    },
    {
      "bufferView": 2,
      "byteOffset": 123852,
      "componentType": 5126,
      "count": 2651,
      "max": [
        0.99341005086898804,
        0.99968093633651733,
        0.99988925457000732
      ],
      "min": [
        -0.99341005086898804,
        -0.99712055921554565,
        -0.99998211860656738
      ],
      "type": "VEC3"
    },
    {
      "bufferView": 3,
      "byteOffset": 61104,
      "componentType": 5126,
      "count": 2651,
      "max": [
        1,
        0.99965751171112061,
        0.99726694822311401,
        1
      ],
      "min": [
        -1,
        -0.99965643882751465,
        -0.99932289123535156,
        -1
      ],
      "type": "VEC4"
    },
    {
      "bufferView": 1,
      "byteOffset": 30552,
      "componentType": 5126,
      "count": 2651,
      "max": [
        0.99639999866485596,
        1.6679999828338623
      ],
      "min": [
        -0.90420001745223999,
        -0.93169999122619629
      ],
      "type": "VEC2"
    },
    {
      "bufferView": 0,
      "byteOffset": 62232,
      "componentType": 5125,
      "count": 9900,
      "max": [
        2650
      ],
      "min": [
        0
      ],
      "type": "SCALAR"
    },
    {
      "bufferView": 2,
      "byteOffset": 155664,
      "componentType": 5126,
      "count": 759,
      "max": [
        0.16159999370574951,
        0.17800000309944153,
        2.3113999366760254
      ],
      "min": [
        -0.16369999945163727,
        -0.13609999418258667,
        1.9842000007629395
      ],
      "type": "VEC3"
    },
    {
      "bufferView": 2,
      "byteOffset": 164772,
      "componentType": 5126,
      "count": 759,
      "max": [
        0.99703669548034668,
        0.99999427795410156,
        0.99996805191040039
      ],
      "min": [
        -0.99703669548034668,
        -0.99999392032623291,
        -0.98642635345458984
      ],
      "type": "VEC3"
    },
    {
      "bufferView": 3,
      "byteOffset": 103520,
      "componentType": 5126,
      "count": 759,
      "max": [
        1,
        0.99950218200683594,
        0.99907249212265015,
        1
      ],
      "min": [
        -0.99990451335906982,
        -0.9947088360786438,
        -0.99999207258224487,
        -1
      ],
      "type": "VEC4"
    },
    {
      "bufferView": 1,
      "byteOffset": 51760,
      "componentType": 5126,
      "count": 759,
      "max": [
        0.99580001831054688,
        0.99750000238418579
      ],
      "min": [
        0.0046999999321997166,
        0.095600001513957977
      ],
      "type": "VEC2"
    },
    {
      "bufferView": 0,
      "byteOffset": 101832,
      "componentType": 5125,
      "count": 2904,
      "max": [
        758
      ],
      "min": [
        0
      ],
      "type": "SCALAR"
    },
    {
      "bufferView": 2,
      "byteOffset": 173880,
      "componentType": 5126,
      "count": 1023,
      "max": [
        0.33230000734329224,
        0.27149999141693115,
        1.4670000076293945
      ],
      "min": [
        -0.33430001139640808,
        -0.2581000030040741,
        -0.011900000274181366
      ],
      "type": "VEC3"
    },
    {
      "bufferView": 2,
      "byteOffset": 186156,
      "componentType": 5126,
      "count": 1023,
      "max": [
        0.99968165159225464,
        0.97250074148178101,
        0.99959224462509155
      ],
      "min": [
        -0.99968165159225464,
        -1,
        -0.99706828594207764
      ],
      "type": "VEC3"
    },
    {
      "bufferView": 3,
      "byteOffset": 115664,
      "componentType": 5126,
      "count": 1023,
      "max": [
        1,
        0.99988049268722534,
        0.91674512624740601,
        1
      ],
      "min": [
        -1,
        -0.99988067150115967,
        -0.99864894151687622,
        -1
      ],
      "type": "VEC4"
    },
    {
      "bufferView": 1,
      "byteOffset": 57832,
      "componentType": 5126,
      "count": 1023,
      "max": [
        0.99720001220703125,
        0.99180001020431519
      ],
      "min": [
        0.012400000356137753,
        0.0070000002160668373
      ],
      "type": "VEC2"
    },
    {
      "bufferView": 0,
      "byteOffset": 113448,
      "componentType": 5125,
      "count": 3768,
      "max": [
        1022
      ],
      "min": [
        0
      ],
      "type": "SCALAR"
    },
    {
      "bufferView": 2,
      "byteOffset": 198432,
      "componentType": 5126,
      "count": 445,
      "max": [
        0.21250000596046448,
        0.1534000039100647,
        1.9490000009536743
      ],
      "min": [
        -0.21449999511241913,
        -0.25979998707771301,
        1.1875
      ],
      "type": "VEC3"
    },
    {
      "bufferView": 2,
      "byteOffset": 203772,
      "componentType": 5126,
      "count": 445,
      "max": [
        0.98337054252624512,
        0.93328368663787842,
        0.99804472923278809
      ],
      "min": [
        -0.98337054252624512,
        -0.99925863742828369,
        -0.9997144341468811
      ],
      "type": "VEC3"
    },
    {
      "bufferView": 3,
      "byteOffset": 132032,
      "componentType": 5126,
      "count": 445,
      "max": [
        1,
        0.9946892261505127,
        0.99004828929901123,
        1
      ],
      "min": [
        -0.99990212917327881,
        -0.99469101428985596,
        -0.9902910590171814,
        -1
      ],
      "type": "VEC4"
    },
    {
      "bufferView": 1,
      "byteOffset": 66016,
      "componentType": 5126,
      "count": 445,
      "max": [
        0.99040001630783081,
        0.99320000410079956
      ],
      "min": [
        0.0096000004559755325,
        0.046999998390674591
      ],
      "type": "VEC2"
    },
    {
      "bufferView": 0,
      "byteOffset": 128520,
      "componentType": 5125,
      "count": 1806,
      "max": [
        444
      ],
      "min": [
        0
      ],
      "type": "SCALAR"
    }
  ],
  "asset": {
    "generator": "Sketchfab (OSG glTF plugin)",
    "version": "2.0"
  },
  "bufferViews": [
    {
      "buffer": 0,
      "byteLength": 135744,
      "byteOffset": 0,
      "name": "floatBufferViews",
      "target": 34963
    },
    {
      "buffer": 0,
      "byteLength": 69576,
      "byteOffset": 135744,
      "byteStride": 8,
      "name": "floatBufferViews",
      "target": 34962
    },
    {
      "buffer": 0,
      "byteLength": 209112,
      "byteOffset": 205320,
      "byteStride": 12,
      "name": "floatBufferViews",
      "target": 34962
    },
    {
      "buffer": 0,
      "byteLength": 139152,
      "byteOffset": 414432,
      "byteStride": 16,
      "name": "floatBufferViews",
      "target": 34962
    }
  ],
  "buffers": [
    {
      "byteLength": 553584,
      "uri": "scene.bin"
    }
  ],
  "images": [
    {
      "uri": "textures/hair_mat_baseColor.png"
    },
    {
      "uri": "textures/hair_mat_emissive.png"
    },
    {
      "uri": "textures/swimsuit_mat_baseColor.png"
    },
    {
      "uri": "textures/swimsuit_mat_emissive.png"
    },
    {
      "uri": "textures/face_mat_baseColor.png"
    },
    {
      "uri": "textures/face_mat_emissive.png"
    },
    {
      "uri": "textures/skirt0_mat_baseColor.png"
    },
    {
      "uri": "textures/skirt0_mat_emissive.png"
    },
    {
      "uri": "textures/cloth00_mat_baseColor.png"
    },
    {
      "uri": "textures/cloth00_mat_emissive.png"
    },
    {
      "uri": "textures/body_mat_baseColor.png"
    },
    {
      "uri": "textures/body_mat_emissive.png"
    }
  ],
  "materials": [
    {
      "doubleSided": true,
      "emissiveFactor": [
        0,
        0,
        0
      ],
      "emissiveTexture": {
        "index": 11,
        "texCoord": 0
      },
      "name": "body_mat",
      "pbrMetallicRoughness": {
        "baseColorFactor": [
          1,
          1,
          1,
          1
        ],
        "baseColorTexture": {
          "index": 10,
          "texCoord": 0
        },
        "metallicFactor": 0,
        "roughnessFactor": 0.74392503980000002
      }
    },
    {
      "doubleSided": true,
      "emissiveFactor": [
        0,
        0,
        0
      ],
      "emissiveTexture": {
        "index": 9,
        "texCoord": 0
      },
      "name": "cloth00_mat",
      "pbrMetallicRoughness": {
        "baseColorFactor": [
          1,
          1,
          1,
          1
        ],
        "baseColorTexture": {
          "index": 8,
          "texCoord": 0
        },
        "metallicFactor": 0,
        "roughnessFactor": 0.74392503980000002
      }
    },
    {
      "doubleSided": true,
      "emissiveFactor": [
        0,
        0,
        0
      ],
      "emissiveTexture": {
        "index": 5,
        "texCoord": 0
      },
      "name": "face_mat",
      "pbrMetallicRoughness": {
        "baseColorFactor": [
          1,
          1,
          1,
          1
        ],
        "baseColorTexture": {
          "index": 4,
          "texCoord": 0
        },
        "metallicFactor": 0,
        "roughnessFactor": 0.74392503980000002
      }
    },
    {
      "doubleSided": true,
      "emissiveFactor": [
        0,
        0,
        0
      ],
      "emissiveTexture": {
        "index": 1,
        "texCoord": 0
      },
      "name": "hair_mat",
      "pbrMetallicRoughness": {
        "baseColorFactor": [
          1,
          1,
          1,
          1
        ],
        "baseColorTexture": {
          "index": 0,
          "texCoord": 0
        },
        "metallicFactor": 0,
        "roughnessFactor": 0.74392503980000002
      }
    },
    {
      "doubleSided": true,
      "emissiveFactor": [
        0,
        0,
        0
      ],
      "emissiveTexture": {
        "index": 7,
        "texCoord": 0
      },
      "name": "skirt0_mat",
      "pbrMetallicRoughness": {
        "baseColorFactor": [
          1,
          1,
          1,
          1
        ],
        "baseColorTexture": {
          "index": 6,
          "texCoord": 0
        },
        "metallicFactor": 0,
        "roughnessFactor": 0.74392503980000002
      }
    },
    {
      "doubleSided": true,
      "emissiveFactor": [
        0,
        0,
        0
      ],
      "emissiveTexture": {
        "index": 3,
        "texCoord": 0
      },
      "name": "swimsuit_mat",
      "pbrMetallicRoughness": {
        "baseColorFactor": [
          1,
          1,
          1,
          1
        ],
        "baseColorTexture": {
          "index": 2,
          "texCoord": 0
        },
        "metallicFactor": 0,
        "roughnessFactor": 0.74392503980000002
      }
    }
  ],
  "meshes": [
    {
      "primitives": [
        {
          "attributes": {
            "NORMAL": 1,
            "POSITION": 0
          },
          "indices": 2,
          "material": 2,
          "mode": 4
        }
      ]
    },
    {
      "primitives": [
        {
          "attributes": {
            "NORMAL": 4,
            "POSITION": 3,
            "TANGENT": 5,
            "TEXCOORD_0": 6
          },
          "indices": 7,
          "material": 3,
          "mode": 4
        }
      ]
    },
    {
      "primitives": [
        {
          "attributes": {
            "NORMAL": 9,
            "POSITION": 8,
            "TANGENT": 10,
            "TEXCOORD_0": 11
          },
          "indices": 12,
          "material": 0,
          "mode": 4
        }
      ]
    },
    {
      "primitives": [
        {
          "attributes": {
            "NORMAL": 14,
            "POSITION": 13,
            "TANGENT": 15,
            "TEXCOORD_0": 16
          },
          "indices": 17,
          "material": 0,
          "mode": 4
        }
      ]
    },
    {
      "primitives": [
        {
          "attributes": {
            "NORMAL": 19,
            "POSITION": 18,
            "TANGENT": 20,
            "TEXCOORD_0": 21
          },
          "indices": 22,
          "material": 1,
          "mode": 4
        }
      ]
    },
    {
      "primitives": [
        {
          "attributes": {
            "NORMAL": 24,
            "POSITION": 23,
            "TANGENT": 25,
            "TEXCOORD_0": 26
          },
          "indices": 27,
          "material": 2,
          "mode": 4
        }
      ]
    },
    {
      "primitives": [
        {
          "attributes": {
            "NORMAL": 29,
            "POSITION": 28,
            "TANGENT": 30,
            "TEXCOORD_0": 31
          },
          "indices": 32,
          "material": 4,
          "mode": 4
        }
      ]
    },
    {
      "primitives": [
        {
          "attributes": {
            "NORMAL": 34,
            "POSITION": 33,
            "TANGENT": 35,
            "TEXCOORD_0": 36
          },
          "indices": 37,
          "material": 5,
          "mode": 4
        }
      ]
    }
  ],
  "nodes": [
    {
      "children": [
        1
      ],
      "name": "RootNode (gltf orientation matrix)",
      "rotation": [
        -0.70710678118654746,
        -0,
        -0,
        0.70710678118654757
      ]
    },
    {
      "children": [
        2
      ],
      "name": "RootNode (model correction matrix)"
    },
    {
      "children": [
        11
      ],
      "name": "Ikaruga.obj.cleaner.materialmerger.gles"
    },
    {
      "mesh": 0,
      "name": ""
    },
    {
      "mesh": 1,
      "name": ""
    },
    {
      "mesh": 2,
      "name": ""
    },
    {
      "mesh": 3,
      "name": ""
    },
    {
      "mesh": 4,
      "name": ""
    },
    {
      "mesh": 5,
      "name": ""
    },
    {
      "mesh": 6,
      "name": ""
    },
    {
      "mesh": 7,
      "name": ""
    },
    {
      "children": [
        3,
        4,
        5,
        6,
        7,
        8,
        9,
        10
      ],
      "name": "Geode"
    }
  ],
  "samplers": [
    {
      "magFilter": 9729,
      "minFilter": 9987,
      "wrapS": 10497,
      "wrapT": 10497
    }
  ],
  "scene": 0,
  "scenes": [
    {
      "name": "OSG_Scene",
      "nodes": [
        0
      ]
    }
  ],
  "textures": [
    {
      "sampler": 0,
      "source": 0
    },
    {
      "sampler": 0,
      "source": 1
    },
    {
      "sampler": 0,
      "source": 2
    },
    {
      "sampler": 0,
      "source": 3
    },
    {
      "sampler": 0,
      "source": 4
    },
    {
      "sampler": 0,
      "source": 5
    },
    {
      "sampler": 0,
      "source": 6
    },
    {
      "sampler": 0,
      "source": 7
    },
    {
      "sampler": 0,
      "source": 8
    },
    {
      "sampler": 0,
      "source": 9
    },
    {
      "sampler": 0,
      "source": 10
    },
    {
      "sampler": 0,
      "source": 11
    }
  ]
}

